<svg xmlns="http://www.w3.org/2000/svg" viewBox="0 0 1280 800" role="img" aria-labelledby="title desc">
  <title id="title">Discord Status Companion dashboard</title>
  <desc id="desc">A product preview of the companion showing its connection, current media, activity inbox, and controls.</desc>
  <defs><linearGradient id="bg" x1="0" y1="0" x2="1" y2="1"><stop stop-color="#07101f"/><stop offset="1" stop-color="#102947"/></linearGradient><linearGradient id="poster" x1="0" y1="0" x2="1" y2="1"><stop stop-color="#173a73"/><stop offset=".55" stop-color="#ff627e"/><stop offset="1" stop-color="#07101d"/></linearGradient><linearGradient id="action" x1="0" y1="0" x2="1" y2="1"><stop stop-color="#3979ff"/><stop offset="1" stop-color="#1756ce"/></linearGradient></defs>
  <rect width="1280" height="800" rx="38" fill="url(#bg)"/>
  <path d="M0 150c280 120 460-130 750-20s370-50 530 30" fill="none" stroke="#4a8bff" stroke-width="2" opacity=".2"/>
  <g transform="translate(125 70)">
    <rect width="1030" height="660" rx="28" fill="#071321" stroke="#31517c"/>
    <rect width="1030" height="72" rx="28" fill="#0c1a2c"/><image href="icon128.png" x="18" y="14" width="44" height="44"/><text x="78" y="43" fill="#f5f8ff" font-family="Arial,sans-serif" font-size="22" font-weight="700">Discord Status Companion</text><circle cx="847" cy="36" r="6" fill="#66e3aa"/><text x="862" y="42" fill="#66e3aa" font-family="Arial,sans-serif" font-size="15" font-weight="700">Discord connected</text>
    <g transform="translate(34 100)">
      <rect width="962" height="238" rx="20" fill="#10233d" stroke="#31517c"/>
      <rect x="24" y="24" width="144" height="190" rx="14" fill="url(#poster)"/><circle cx="130" cy="70" r="31" fill="#ff9d72"/><path d="M24 143 70 92l36 30 62-55v147H24Z" fill="#091426" opacity=".94"/>
      <text x="202" y="55" fill="#70a6ff" font-family="Arial,sans-serif" font-size="13" font-weight="700" letter-spacing="2">WATCHING</text><text x="202" y="94" fill="#f5f8ff" font-family="Arial,sans-serif" font-size="30" font-weight="700">Neon Harbor</text><text x="202" y="125" fill="#a5b4ca" font-family="Arial,sans-serif" font-size="17">S2 E4 · Signal Lost</text><text x="202" y="157" fill="#66e3aa" font-family="Arial,sans-serif" font-size="14">Playing on Netflix</text>
      <rect x="202" y="183" width="704" height="7" rx="4" fill="#2a3c58"/><rect x="202" y="183" width="435" height="7" rx="4" fill="#4a8bff"/><text x="202" y="211" fill="#7f91aa" font-family="Arial,sans-serif" font-size="12">28:42</text><text x="870" y="211" fill="#7f91aa" font-family="Arial,sans-serif" font-size="12">48:12</text>
    </g>
    <g transform="translate(34 360)"><rect width="962" height="76" rx="16" fill="url(#action)"/><path d="M36 27h22l-8-8m8 8-8 8M58 49H36l8 8m-8-8 8-8" fill="none" stroke="#fff" stroke-width="4" stroke-linecap="round" stroke-linejoin="round"/><text x="82" y="35" fill="#fff" font-family="Arial,sans-serif" font-size="21" font-weight="700">Select activity</text><text x="82" y="57" fill="#dbe7ff" font-family="Arial,sans-serif" font-size="13">Choose what appears on your Discord profile</text><text x="908" y="45" fill="#fff" font-family="Arial,sans-serif" font-size="26">›</text></g>
    <text x="34" y="474" fill="#7d91b1" font-family="Arial,sans-serif" font-size="12" font-weight="700" letter-spacing="2">ACTIVITY INBOX</text>
    <g transform="translate(34 494)"><rect width="466" height="70" rx="14" fill="#0d1a2e" stroke="#263c5c"/><circle cx="38" cy="35" r="23" fill="#16c75c"/><path d="M26 29c11-4 22-2 30 2M28 36c9-3 18-1 24 2M31 43c6-2 12-1 17 1" fill="none" stroke="#07101e" stroke-width="4" stroke-linecap="round"/><text x="76" y="31" fill="#f5f8ff" font-family="Arial,sans-serif" font-size="16" font-weight="700">Spotify</text><text x="76" y="52" fill="#8fa2bf" font-family="Arial,sans-serif" font-size="13">The Moves · ODESZA</text></g>
    <g transform="translate(530 494)"><rect width="466" height="70" rx="14" fill="#0d1a2e" stroke="#263c5c"/><circle cx="38" cy="35" r="23" fill="#f5f8ff"/><text x="38" y="42" text-anchor="middle" fill="#111827" font-family="Arial,sans-serif" font-size="22" font-weight="800">V</text><text x="76" y="31" fill="#f5f8ff" font-family="Arial,sans-serif" font-size="16" font-weight="700">VLC media player</text><text x="76" y="52" fill="#8fa2bf" font-family="Arial,sans-serif" font-size="13">Movie playback detected</text></g>
    <g transform="translate(34 588)"><rect width="304" height="48" rx="12" fill="#10243a" stroke="#356e61"/><text x="152" y="31" text-anchor="middle" fill="#66e3aa" font-family="Arial,sans-serif" font-size="15" font-weight="700">Pause updates</text><rect x="329" width="304" height="48" rx="12" fill="#0d1a2e" stroke="#263c5c"/><text x="481" y="31" text-anchor="middle" fill="#f5f8ff" font-family="Arial,sans-serif" font-size="15" font-weight="700">Reconnect Discord</text><rect x="658" width="304" height="48" rx="12" fill="#0d1a2e" stroke="#263c5c"/><text x="810" y="31" text-anchor="middle" fill="#f5f8ff" font-family="Arial,sans-serif" font-size="15" font-weight="700">Open settings</text></g>
  </g>
</svg>
